HIERARCHY
ROOT Hips
{
	OFFSET 0.00000 0.00000 0.00000
	CHANNELS 6 Xposition Yposition Zposition Zrotation Yrotation Xrotation 
	JOINT LHipJoint
	{
		OFFSET 0 0 0
		CHANNELS 3 Zrotation Yrotation Xrotation
		JOINT LeftUpLeg
		{
			OFFSET 1.37733 -1.58235 0.71371
			CHANNELS 3 Zrotation Yrotation Xrotation
			JOINT LeftLeg
			{
				OFFSET 2.33951 -6.42775 0.00000
				CHANNELS 3 Zrotation Yrotation Xrotation
				JOINT LeftFoot
				{
					OFFSET 2.30523 -6.33358 0.00000
					CHANNELS 3 Zrotation Yrotation Xrotation
					JOINT LeftToeBase
					{
						OFFSET 0.05388 -0.14857 1.53863
						CHANNELS 3 Zrotation Yrotation Xrotation
						End Site
						{
							OFFSET 0.00000 -0.00000 0.79208
						}
					}
				}
			}
		}
	}
	JOINT RHipJoint
	{
		OFFSET 0 0 0
		CHANNELS 3 Zrotation Yrotation Xrotation
		JOINT RightUpLeg
		{
			OFFSET -1.47839 -1.58235 0.71371
			CHANNELS 3 Zrotation Yrotation Xrotation
			JOINT RightLeg
			{
				OFFSET -2.26534 -6.22397 0.00000
				CHANNELS 3 Zrotation Yrotation Xrotation
				JOINT RightFoot
				{
					OFFSET -2.27037 -6.23779 0.00000
					CHANNELS 3 Zrotation Yrotation Xrotation
					JOINT RightToeBase
					{
						OFFSET -0.09543 -0.26220 1.62615
						CHANNELS 3 Zrotation Yrotation Xrotation
						End Site
						{
							OFFSET -0.00000 -0.00000 0.83991
						}
					}
				}
			}
		}
	}
	JOINT LowerBack
	{
		OFFSET 0 0 0
		CHANNELS 3 Zrotation Yrotation Xrotation
		JOINT Spine
		{
			OFFSET 0.00101 1.81877 -0.00412
			CHANNELS 3 Zrotation Yrotation Xrotation
			JOINT Spine1
			{
				OFFSET 0.00322 1.81934 -0.03962
				CHANNELS 3 Zrotation Yrotation Xrotation
				JOINT Neck
				{
					OFFSET 0 0 0
					CHANNELS 3 Zrotation Yrotation Xrotation
					JOINT Neck1
					{
						OFFSET -0.13795 1.66192 0.22650
						CHANNELS 3 Zrotation Yrotation Xrotation
						JOINT Head
						{
							OFFSET 0.14844 1.65995 -0.39123
							CHANNELS 3 Zrotation Yrotation Xrotation
							End Site
							{
								OFFSET 0.04109 1.72502 -0.16783
							}
						}
					}
				}
				JOINT LeftShoulder
				{
					OFFSET 0 0 0
					CHANNELS 3 Zrotation Yrotation Xrotation
					JOINT LeftArm
					{
						OFFSET 3.25446 1.41983 0.32106
						CHANNELS 3 Zrotation Yrotation Xrotation
						JOINT LeftForeArm
						{
							OFFSET 4.05444 -0.00000 -0.00000
							CHANNELS 3 Zrotation Yrotation Xrotation
							JOINT LeftHand
							{
								OFFSET 3.21205 -0.00000 0.00000
								CHANNELS 3 Zrotation Yrotation Xrotation
								JOINT LeftFingerBase
								{
									OFFSET 0 0 0
									CHANNELS 3 Zrotation Yrotation Xrotation
									JOINT LeftHandIndex1
									{
										OFFSET 0.70741 -0.00000 0.00000
										CHANNELS 3 Zrotation Yrotation Xrotation
										End Site
										{
											OFFSET 0.57033 -0.00000 0.00000
										}
									}
								}
								JOINT LThumb
								{
									OFFSET 0 0 0
									CHANNELS 3 Zrotation Yrotation Xrotation
									End Site
									{
										OFFSET 0.57904 -0.00000 0.57904
									}
								}
							}
						}
					}
				}
				JOINT RightShoulder
				{
					OFFSET 0 0 0
					CHANNELS 3 Zrotation Yrotation Xrotation
					JOINT RightArm
					{
						OFFSET -3.30007 1.25485 0.33947
						CHANNELS 3 Zrotation Yrotation Xrotation
						JOINT RightForeArm
						{
							OFFSET -3.74048 -0.00000 -0.00000
							CHANNELS 3 Zrotation Yrotation Xrotation
							JOINT RightHand
							{
								OFFSET -3.16030 -0.00000 0.00000
								CHANNELS 3 Zrotation Yrotation Xrotation
								JOINT RightFingerBase
								{
									OFFSET 0 0 0
									CHANNELS 3 Zrotation Yrotation Xrotation
									JOINT RightHandIndex1
									{
										OFFSET -0.71703 -0.00000 0.00000
										CHANNELS 3 Zrotation Yrotation Xrotation
										End Site
										{
											OFFSET -0.57809 -0.00000 0.00000
										}
									}
								}
								JOINT RThumb
								{
									OFFSET 0 0 0
									CHANNELS 3 Zrotation Yrotation Xrotation
									End Site
									{
										OFFSET -0.58691 -0.00000 0.58691
									}
								}
							}
						}
					}
				}
			}
		}
	}
}
MOTION
Frames: 14
Frame Time: .0083333
26.3686 16.4201 0.9171 0 0 0 0 0 0 -21 0 0 0 0 0 0 0 0 0 0 0 0 0 0 21 0 0 0 0 0 0 0 0 0 0 0 0 0 0 0 0 0 0 0 0 0 0 -16 0 0 21 0 0 11 0 0 0 -8 0 0 0 0 0 0 0 0 0 0 0 0 0 0 0 0 0 0 0 0 8 0 0 0 0 0 0 0 0 0 0 0 0 0 0 0 0 0
26.3686 16.4201 0.9171 -61.0578 86.2434 -53.5862 0.0000 0.0000 0.0000 -17.8722 -3.3647 3.9271 0.0145 0.7781 2.1386 -0.8591 17.0555 -0.4640 4.5000 -12.7975 -38.6152 0.0000 0.0000 0.0000 33.5246 27.2782 20.0952 -0.0858 1.8888 -5.1984 -5.8616 13.8434 -44.4255 -1.0790 -6.6025 18.5428 3.8384 0.5340 -7.1070 1.3575 0.3972 -0.7236 -0.7129 0.2550 3.2538 -4.5902 -3.4677 -26.5577 1.6817 -2.7957 39.2701 1.0875 -1.1893 19.9445 0.0000 -0.0000 0.0000 -86.1352 -6.4193 16.6494 8.1390 -13.7779 -0.9850 -0.0000 0.0000 -6.8071 25.3018 -11.3689 -5.3239 -7.1250 0.0000 -0.0000 -1.2839 17.4428 0.8402 0.0000 -0.0000 0.0000 92.4914 -5.1168 22.7318 -13.1310 21.4788 -2.5010 0.0000 0.0000 55.2964 -30.9870 12.0390 -7.1398 7.1250 -0.0000 -0.0000 -2.6055 -16.0194 -1.7872
26.3691 16.3615 0.9107 -40.7730 86.9118 -32.1010 0.0000 0.0000 0.0000 -19.5907 -3.9996 2.8394 0.0144 0.7752 2.1304 -0.9210 17.6481 -0.4505 4.5129 -12.8133 -38.6737 0.0000 0.0000 0.0000 30.9934 27.3362 18.4073 -0.0890 1.9241 -5.2960 -5.1174 19.0549 -41.6037 -0.0012 -0.2267 0.6229 2.5390 0.6376 -8.3837 1.0011 0.6140 -1.0470 -0.3201 0.3498 3.6310 -4.6420 -3.4553 -26.5571 1.7649 -2.7829 39.3117 1.1426 -1.1785 19.9740 0.0000 0.0000 0.0000 -85.8912 -6.4461 16.7754 8.3744 -14.1579 -1.0418 -0.0000 0.0000 -7.5742 25.5204 -11.6329 -5.4987 -7.1250 0.0000 -0.0000 -1.1471 17.1306 0.7585 0.0000 0.0000 0.0000 92.3767 -5.1884 24.4973 -13.3295 21.7681 -2.5742 0.0000 0.0000 48.2425 -20.5355 18.6115 -6.8174 7.1250 -0.0000 -0.0000 4.9543 -10.2590 4.0081
26.3805 16.3031 0.9031 -1.8705 86.8871 7.2244 0.0000 0.0000 0.0000 -22.2497 -4.3370 2.8799 0.0095 0.6291 1.7287 -1.0055 18.4540 -0.3436 4.5170 -12.8183 -38.6922 0.0000 0.0000 0.0000 28.0261 26.8203 17.6748 -0.1024 2.0634 -5.6810 -4.3634 21.9848 -38.8486 -0.4754 4.4218 -12.2665 0.5726 0.7119 -9.0397 0.4733 0.9050 -1.1331 0.2802 0.4689 3.8930 -4.7339 -3.4557 -26.5461 1.8534 -2.7740 39.3298 1.2059 -1.1753 19.9873 -0.0000 0.0000 0.0000 -85.7174 -6.5539 16.9168 8.5094 -14.3752 -1.0751 -0.0000 0.0000 -8.0417 25.6812 -11.9292 -5.6763 -7.1250 0.0000 -0.0000 -1.0538 16.7880 0.7047 -0.0000 0.0000 0.0000 92.3848 -4.4611 22.6657 -12.9789 21.2563 -2.4456 0.0000 0.0000 41.8024 -16.5650 17.3022 -5.0555 7.1250 -0.0000 -0.0000 7.4992 -12.0921 5.8131
26.3975 16.2744 0.8936 27.3172 85.7674 35.6468 0.0000 0.0000 0.0000 -25.1448 -4.2296 4.2492 0.0041 0.4143 1.1382 -1.0895 19.2258 -0.2256 4.5177 -12.8191 -38.6951 0.0000 0.0000 0.0000 25.3946 25.3422 18.1678 -0.1272 2.2992 -6.3332 -3.7954 22.9535 -36.6007 -1.1832 6.9032 -19.4290 -1.4477 0.7364 -8.5769 -0.0969 1.1472 -0.8791 0.8491 0.5580 3.8710 -4.7699 -3.4538 -26.5637 1.8850 -2.7626 39.3658 1.2317 -1.1709 20.0166 -0.0000 0.0000 0.0000 -85.5831 -6.7486 16.9996 8.5484 -14.4378 -1.0848 -0.0000 0.0000 -8.2861 25.7085 -12.4061 -5.9054 -7.1250 0.0000 -0.0000 -1.0663 16.2613 0.7252 -0.0000 0.0000 0.0000 92.3705 -3.6172 20.5302 -12.4447 20.4682 -2.2554 0.0000 0.0000 34.6696 -16.1554 12.4171 -3.5643 7.1250 -0.0000 -0.0000 7.6944 -17.1411 5.1317
26.3931 16.2731 0.8938 26.3380 85.8459 34.7966 0.0000 0.0000 0.0000 -25.0430 -4.4740 4.1486 0.0043 0.4241 1.1654 -1.1032 19.3654 -0.1573 4.4750 -12.7670 -38.5024 0.0000 0.0000 0.0000 25.2370 24.8666 17.6199 -0.1228 2.2594 -6.2232 -3.5022 23.5672 -35.4572 -1.4538 7.6213 -21.5696 -1.3813 0.7089 -8.7378 -0.0387 1.1049 -0.8649 0.8700 0.5368 3.9767 -4.7479 -3.4379 -26.6016 1.8386 -2.7290 39.3462 1.2118 -1.1628 20.0109 0.0000 -0.0000 0.0000 -85.5061 -6.9692 17.0495 8.6271 -14.5642 -1.1045 -0.0000 0.0000 -8.4935 25.5752 -12.4758 -5.9027 -7.1250 0.0000 -0.0000 -1.1632 16.1999 0.7926 0.0000 -0.0000 0.0000 92.2499 -3.1188 19.4552 -11.6194 19.2314 -1.9751 0.0000 0.0000 32.4051 -23.5347 5.5317 -2.4041 7.1250 -0.0000 -0.0000 2.3509 -23.9504 1.1951
26.3922 16.2758 0.8970 26.7919 85.8405 35.1704 0.0000 0.0000 0.0000 -25.0592 -4.4275 4.2214 0.0043 0.4233 1.1631 -1.0992 19.3220 -0.1855 4.3746 -12.6429 -38.0459 0.0000 0.0000 0.0000 25.0446 24.1910 17.3071 -0.1198 2.2318 -6.1466 -3.3368 23.3683 -34.6703 -1.1989 6.9474 -19.5596 -1.5490 0.6588 -8.7954 0.0300 1.0515 -0.7395 1.0313 0.5039 4.1364 -4.7418 -3.4194 -26.6265 1.7982 -2.6902 39.2755 1.1977 -1.1556 19.9692 -0.0000 0.0000 0.0000 -85.4981 -7.0979 17.3321 8.7993 -14.8400 -1.1482 -0.0000 0.0000 -8.8221 25.4794 -12.1644 -5.7341 -7.1250 0.0000 -0.0000 -1.2091 16.5520 0.8147 -0.0000 0.0000 0.0000 92.0670 -2.7064 19.1728 -11.5890 19.1854 -1.9651 0.0000 0.0000 32.6744 -22.3394 4.5452 -1.8652 7.1250 -0.0000 -0.0000 3.2404 -25.0671 1.5647
26.3917 16.2789 0.8991 27.7050 85.8358 36.0109 0.0000 0.0000 0.0000 -25.0985 -4.3033 4.2490 0.0045 0.4321 1.1873 -1.1032 19.3244 -0.2740 4.3233 -12.5786 -37.8109 0.0000 0.0000 0.0000 24.8028 23.4912 16.9920 -0.1186 2.2206 -6.1156 -3.1793 23.1941 -33.9122 -1.0365 6.4753 -18.1698 -1.7092 0.6168 -8.7489 0.0808 1.0076 -0.6815 1.1686 0.4777 4.1683 -4.8125 -3.4248 -26.6627 1.8268 -2.6731 39.2896 1.2286 -1.1560 19.9903 -0.0000 0.0000 0.0000 -85.5407 -7.1215 17.6891 8.9340 -15.0551 -1.1829 -0.0000 0.0000 -9.1254 25.3962 -12.4390 -5.8389 -7.1250 0.0000 -0.0000 -1.2845 16.2604 0.8737 -0.0000 0.0000 0.0000 91.8949 -2.4963 18.9368 -11.5554 19.1345 -1.9541 0.0000 0.0000 32.9101 -22.0266 4.2565 -1.7199 7.1250 -0.0000 -0.0000 3.4776 -25.3885 1.6536
26.3893 16.2784 0.8965 28.2214 85.8271 36.5926 0.0000 0.0000 0.0000 -25.1572 -4.3620 4.1498 0.0048 0.4494 1.2348 -1.1239 19.5001 -0.2692 4.3081 -12.5595 -37.7412 0.0000 0.0000 0.0000 24.4029 22.6857 16.3696 -0.1154 2.1900 -6.0312 -2.9486 23.0700 -32.8152 -0.9484 6.2022 -17.3722 -1.7263 0.5970 -8.7371 0.0923 0.9825 -0.7173 1.1865 0.4658 4.1248 -4.9194 -3.4661 -26.6924 1.8728 -2.7002 39.3313 1.2644 -1.1758 20.0314 0.0000 0.0000 0.0000 -85.6223 -7.1761 17.7639 8.9392 -15.0634 -1.1843 -0.0000 0.0000 -9.1156 25.2657 -12.9767 -6.0498 -7.1250 0.0000 -0.0000 -1.4101 15.6871 0.9766 0.0000 0.0000 0.0000 91.7378 -2.3737 18.6730 -11.4499 18.9745 -1.9196 0.0000 0.0000 33.3392 -22.8679 4.7363 -1.9945 7.1250 -0.0000 -0.0000 2.8436 -24.8416 1.3875
26.3879 16.2781 0.8948 28.5053 85.8427 36.8781 0.0000 0.0000 0.0000 -25.1859 -4.4079 4.1300 0.0050 0.4582 1.2591 -1.1281 19.5431 -0.2458 4.2955 -12.5435 -37.6829 0.0000 0.0000 0.0000 24.1338 21.9593 15.9228 -0.1121 2.1589 -5.9450 -2.7255 23.0253 -31.7510 -0.8522 5.8874 -16.4579 -1.7160 0.5769 -8.7035 0.1058 0.9535 -0.7447 1.1906 0.4523 4.0784 -5.0136 -3.5422 -26.5618 1.8582 -2.7770 39.2386 1.2532 -1.2236 19.9432 0.0000 0.0000 0.0000 -85.7114 -7.1083 18.1008 8.9875 -15.1405 -1.1969 -0.0000 0.0000 -9.2877 25.2612 -12.9327 -6.0285 -7.1250 0.0000 -0.0000 -1.4103 15.7357 0.9752 0.0000 0.0000 0.0000 91.5851 -2.2884 18.4458 -11.3189 18.7754 -1.8773 0.0000 0.0000 33.5955 -23.3353 5.3392 -2.2988 7.1250 -0.0000 -0.0000 2.4973 -24.1687 1.2571
26.3873 16.2790 0.8945 28.5118 85.8725 36.8456 0.0000 0.0000 0.0000 -25.1682 -4.3751 4.1597 0.0050 0.4551 1.2504 -1.1160 19.4357 -0.2640 4.3337 -12.5917 -37.8586 0.0000 0.0000 0.0000 23.9345 21.1980 15.5230 -0.1073 2.1121 -5.8154 -2.4838 22.9876 -30.5749 -0.6613 5.2008 -14.4822 -1.7043 0.5565 -8.6396 0.1351 0.9227 -0.7689 1.2095 0.4379 4.0182 -5.2030 -3.6727 -26.2946 1.8869 -2.9255 39.0158 1.2609 -1.3091 19.7444 0.0000 0.0000 0.0000 -85.8152 -6.8995 18.7936 9.0949 -15.3116 -1.2251 -0.0000 0.0000 -9.7361 25.2739 -12.6109 -5.8854 -7.1250 0.0000 -0.0000 -1.3802 16.0860 0.9440 0.0000 0.0000 0.0000 91.4585 -2.2792 18.2165 -11.3075 18.7580 -1.8736 0.0000 0.0000 33.8099 -22.5971 5.3575 -2.2254 7.1250 -0.0000 -0.0000 3.0474 -24.1806 1.5338
26.3878 16.2789 0.8933 28.5245 85.8748 36.8550 0.0000 0.0000 0.0000 -25.1869 -4.3775 4.1887 0.0047 0.4441 1.2202 -1.1125 19.4002 -0.2817 4.3736 -12.6416 -38.0411 0.0000 0.0000 0.0000 23.5935 20.2079 14.8834 -0.0989 2.0282 -5.5836 -2.2193 22.7254 -29.1792 -0.4724 4.4080 -12.2275 -1.6743 0.5586 -8.5948 0.1370 0.9219 -0.8108 1.1934 0.4392 3.9500 -5.5762 -3.9354 -26.0335 2.0664 -3.2592 38.7945 1.3307 -1.4716 19.5731 0.0000 -0.0000 0.0000 -85.9235 -6.7333 19.3119 9.1220 -15.3546 -1.2322 -0.0000 0.0000 -9.9245 25.0683 -12.3838 -5.7285 -7.1250 0.0000 -0.0000 -1.5079 16.3572 1.0225 0.0000 -0.0000 0.0000 91.3518 -2.2653 18.0536 -11.3316 18.7947 -1.8814 0.0000 0.0000 33.9646 -21.9695 5.0907 -2.0501 7.1250 -0.0000 -0.0000 3.5155 -24.4934 1.7448
26.3887 16.2785 0.8932 28.8093 85.8823 37.1391 0.0000 0.0000 0.0000 -25.2107 -4.3853 4.1941 0.0048 0.4471 1.2285 -1.1147 19.4061 -0.3167 4.3726 -12.6404 -38.0370 0.0000 0.0000 0.0000 23.2009 19.0950 14.1366 -0.0874 1.9067 -5.2479 -1.9816 22.2537 -27.8011 -0.2433 3.1742 -8.7641 -1.6565 0.5642 -8.5451 0.1152 0.9280 -0.8691 1.1603 0.4444 3.8621 -6.1777 -4.3314 -25.6927 2.3950 -3.7621 38.5397 1.4727 -1.7127 19.3902 0.0000 0.0000 0.0000 -86.0327 -6.5277 19.7508 9.1457 -15.3923 -1.2385 -0.0000 0.0000 -10.0039 24.9006 -12.3276 -5.6599 -7.1250 0.0000 -0.0000 -1.6205 16.4368 1.0962 0.0000 0.0000 0.0000 91.2775 -2.2882 17.9644 -11.3144 18.7685 -1.8758 0.0000 0.0000 33.9482 -22.0182 5.1061 -2.0613 7.1250 -0.0000 -0.0000 3.4791 -24.4750 1.7282
26.3899 16.2787 0.8929 28.9438 85.8834 37.2486 0.0000 0.0000 0.0000 -25.2194 -4.3688 4.2261 0.0047 0.4424 1.2157 -1.1152 19.4088 -0.3232 4.3572 -12.6212 -37.9665 0.0000 0.0000 0.0000 23.0235 18.4254 13.7374 -0.0793 1.8162 -4.9979 -1.8034 22.1688 -26.8286 -0.1018 2.0579 -5.6657 -1.6288 0.5697 -8.5196 0.0868 0.9335 -0.8871 1.1154 0.4483 3.8300 -6.9322 -4.8461 -25.2374 2.7518 -4.4086 38.1159 1.6169 -2.0328 19.1038 -0.0000 -0.0000 0.0000 -86.1432 -6.2357 20.3226 9.2532 -15.5630 -1.2672 -0.0000 0.0000 -10.2542 24.8902 -12.4692 -5.7208 -7.1250 0.0000 -0.0000 -1.6364 16.2835 1.1124 -0.0000 -0.0000 0.0000 91.2567 -2.3626 17.8284 -11.3457 18.8163 -1.8859 0.0000 0.0000 33.8704 -21.9804 5.2727 -2.1242 7.1250 -0.0000 -0.0000 3.5069 -24.2974 1.7564
